HIERARCHY
ROOT Hips
{
    OFFSET   0.000000   0.000000   0.000000
    CHANNELS 6 Xposition Yposition Zposition Zrotation Xrotation Yrotation
    JOINT Chest
    {
        OFFSET   0.000000   8.007240   0.000000
        CHANNELS 3 Zrotation Xrotation Yrotation
        JOINT Chest2
        {
            OFFSET   0.000000  22.077100   0.000000
            CHANNELS 3 Zrotation Xrotation Yrotation
            JOINT Neck
            {
                OFFSET   0.000000  23.254800   0.000000
                CHANNELS 3 Zrotation Xrotation Yrotation
                JOINT Head
                {
                    OFFSET   0.000000  14.370000   1.956600
                    CHANNELS 3 Zrotation Xrotation Yrotation
                    End Site
                    {
                        OFFSET   0.000000  19.566000   0.000000
                    }
                }
            }
            JOINT LeftCollar
            {
                OFFSET   3.911900  19.017000  -0.467064
                CHANNELS 3 Zrotation Xrotation Yrotation
                JOINT LeftShoulder
                {
                    OFFSET  10.383700   0.000000   0.000000
                    CHANNELS 3 Zrotation Xrotation Yrotation
                    JOINT LeftElbow
                    {
                        OFFSET  26.662100   0.001476   0.000517
                        CHANNELS 3 Zrotation Xrotation Yrotation
                        JOINT LeftWrist
                        {
                            OFFSET  28.869000  -0.000025  -0.000106
                            CHANNELS 3 Zrotation Xrotation Yrotation
                            JOINT LeftFinger0
                            {
                                OFFSET   2.044660  -2.323460   3.252850
                                CHANNELS 3 Zrotation Xrotation Yrotation
                                JOINT LeftFinger01
                                {
                                    OFFSET   3.088130   0.000000   0.000000
                                    CHANNELS 3 Zrotation Xrotation Yrotation
                                    JOINT LeftFinger02
                                    {
                                        OFFSET   2.639460   0.000000   0.000000
                                        CHANNELS 3 Zrotation Xrotation Yrotation
                                        End Site
                                        {
                                            OFFSET   2.582190   0.000000   0.000000
                                        }
                                    }
                                }
                            }
                            JOINT LeftFinger1
                            {
                                OFFSET   8.364480   0.000000   3.252850
                                CHANNELS 3 Zrotation Xrotation Yrotation
                                JOINT LeftFinger11
                                {
                                    OFFSET   4.646930   0.000000   0.000000
                                    CHANNELS 3 Zrotation Xrotation Yrotation
                                    JOINT LeftFinger12
                                    {
                                        OFFSET   2.323460   0.000000   0.000000
                                        CHANNELS 3 Zrotation Xrotation Yrotation
                                        End Site
                                        {
                                            OFFSET   2.273050   0.000000   0.000000
                                        }
                                    }
                                }
                            }
                            JOINT LeftFinger2
                            {
                                OFFSET   8.364490   0.000015   1.078090
                                CHANNELS 3 Zrotation Xrotation Yrotation
                                JOINT LeftFinger21
                                {
                                    OFFSET   5.111620   0.000000   0.000000
                                    CHANNELS 3 Zrotation Xrotation Yrotation
                                    JOINT LeftFinger22
                                    {
                                        OFFSET   2.788160   0.000016   0.000000
                                        CHANNELS 3 Zrotation Xrotation Yrotation
                                        End Site
                                        {
                                            OFFSET   2.727660   0.000000   0.000000
                                        }
                                    }
                                }
                            }
                            JOINT LeftFinger3
                            {
                                OFFSET   7.899780   0.000017  -1.078090
                                CHANNELS 3 Zrotation Xrotation Yrotation
                                JOINT LeftFinger31
                                {
                                    OFFSET   4.646930   0.000000   0.000000
                                    CHANNELS 3 Zrotation Xrotation Yrotation
                                    JOINT LeftFinger32
                                    {
                                        OFFSET   2.323470   0.000000   0.000000
                                        CHANNELS 3 Zrotation Xrotation Yrotation
                                        End Site
                                        {
                                            OFFSET   2.273050   0.000000   0.000000
                                        }
                                    }
                                }
                            }
                            JOINT LeftFinger4
                            {
                                OFFSET   7.435090   0.000000  -3.252850
                                CHANNELS 3 Zrotation Xrotation Yrotation
                                JOINT LeftFinger41
                                {
                                    OFFSET   3.717550   0.000000   0.000000
                                    CHANNELS 3 Zrotation Xrotation Yrotation
                                    JOINT LeftFinger42
                                    {
                                        OFFSET   1.858770   0.000000   0.000000
                                        CHANNELS 3 Zrotation Xrotation Yrotation
                                        End Site
                                        {
                                            OFFSET   1.818440   0.000000   0.000000
                                        }
                                    }
                                }
                            }
                        }
                    }
                }
            }
            JOINT RightCollar
            {
                OFFSET  -3.911900  19.017000  -0.467063
                CHANNELS 3 Zrotation Xrotation Yrotation
                JOINT RightShoulder
                {
                    OFFSET -10.383700   0.000019   0.000000
                    CHANNELS 3 Zrotation Xrotation Yrotation
                    JOINT RightElbow
                    {
                        OFFSET -26.662100   0.001175   0.000102
                        CHANNELS 3 Zrotation Xrotation Yrotation
                        JOINT RightWrist
                        {
                            OFFSET -28.869000   0.000016  -0.000079
                            CHANNELS 3 Zrotation Xrotation Yrotation
                            JOINT RightFinger0
                            {
                                OFFSET  -2.044660  -2.323490   3.252850
                                CHANNELS 3 Zrotation Xrotation Yrotation
                                JOINT RightFinger01
                                {
                                    OFFSET  -3.088140   0.000000   0.000000
                                    CHANNELS 3 Zrotation Xrotation Yrotation
                                    JOINT RightFinger02
                                    {
                                        OFFSET  -2.639460   0.000000   0.000000
                                        CHANNELS 3 Zrotation Xrotation Yrotation
                                        End Site
                                        {
                                            OFFSET  -2.582190   0.000000   0.000000
                                        }
                                    }
                                }
                            }
                            JOINT RightFinger1
                            {
                                OFFSET  -8.364480   0.000000   3.252850
                                CHANNELS 3 Zrotation Xrotation Yrotation
                                JOINT RightFinger11
                                {
                                    OFFSET  -4.646930   0.000000   0.000000
                                    CHANNELS 3 Zrotation Xrotation Yrotation
                                    JOINT RightFinger12
                                    {
                                        OFFSET  -2.323470   0.000000   0.000000
                                        CHANNELS 3 Zrotation Xrotation Yrotation
                                        End Site
                                        {
                                            OFFSET  -2.273050   0.000000   0.000000
                                        }
                                    }
                                }
                            }
                            JOINT RightFinger2
                            {
                                OFFSET  -8.364480   0.000000   1.078090
                                CHANNELS 3 Zrotation Xrotation Yrotation
                                JOINT RightFinger21
                                {
                                    OFFSET  -5.111620   0.000000   0.000000
                                    CHANNELS 3 Zrotation Xrotation Yrotation
                                    JOINT RightFinger22
                                    {
                                        OFFSET  -2.788160   0.000000   0.000000
                                        CHANNELS 3 Zrotation Xrotation Yrotation
                                        End Site
                                        {
                                            OFFSET  -2.727660   0.000000   0.000000
                                        }
                                    }
                                }
                            }
                            JOINT RightFinger3
                            {
                                OFFSET  -7.899780   0.000000  -1.078090
                                CHANNELS 3 Zrotation Xrotation Yrotation
                                JOINT RightFinger31
                                {
                                    OFFSET  -4.646930   0.000000   0.000000
                                    CHANNELS 3 Zrotation Xrotation Yrotation
                                    JOINT RightFinger32
                                    {
                                        OFFSET  -2.323470   0.000000   0.000000
                                        CHANNELS 3 Zrotation Xrotation Yrotation
                                        End Site
                                        {
                                            OFFSET  -2.273050   0.000000   0.000000
                                        }
                                    }
                                }
                            }
                            JOINT RightFinger4
                            {
                                OFFSET  -7.435090   0.000000  -3.252850
                                CHANNELS 3 Zrotation Xrotation Yrotation
                                JOINT RightFinger41
                                {
                                    OFFSET  -3.717550   0.000000   0.000000
                                    CHANNELS 3 Zrotation Xrotation Yrotation
                                    JOINT RightFinger42
                                    {
                                        OFFSET  -1.858770   0.000000   0.000000
                                        CHANNELS 3 Zrotation Xrotation Yrotation
                                        End Site
                                        {
                                            OFFSET  -1.818440   0.000000   0.000000
                                        }
                                    }
                                }
                            }
                        }
                    }
                }
            }
        }
    }
    JOINT LeftHip
    {
        OFFSET   9.783040   0.000000   0.000000
        CHANNELS 3 Zrotation Xrotation Yrotation
        JOINT LeftKnee
        {
            OFFSET   0.000032 -41.789100  -0.002222
            CHANNELS 3 Zrotation Xrotation Yrotation
            JOINT LeftAnkle
            {
                OFFSET   0.000087 -41.133200  -0.000135
                CHANNELS 3 Zrotation Xrotation Yrotation
                JOINT LeftToe
                {
                    OFFSET   0.000000  -6.358960  14.674500
                    CHANNELS 3 Zrotation Xrotation Yrotation
                    End Site
                    {
                        OFFSET   0.000000   0.000000   3.913200
                    }
                }
            }
        }
    }
    JOINT RightHip
    {
        OFFSET  -9.783040   0.000000   0.000000
        CHANNELS 3 Zrotation Xrotation Yrotation
        JOINT RightKnee
        {
            OFFSET   0.000047 -41.789100  -0.000896
            CHANNELS 3 Zrotation Xrotation Yrotation
            JOINT RightAnkle
            {
                OFFSET  -0.000117 -41.133300  -0.000248
                CHANNELS 3 Zrotation Xrotation Yrotation
                JOINT RightToe
                {
                    OFFSET   0.000000  -6.358970  14.674500
                    CHANNELS 3 Zrotation Xrotation Yrotation
                    End Site
                    {
                        OFFSET   0.000000   0.000000   3.913200
                    }
                }
            }
        }
    }
}
MOTION
Frames: 4
Frame Time:   0.016667
 -1.399140  89.533100  -0.349623  -0.904203  -7.856930   4.148590   2.683310   6.294420  -1.378080   5.569530  12.514700  -3.081020   4.578970  -0.880942   0.066045   7.527350  -1.754200  13.558800  -6.527330   2.599570  -0.621390 -64.831000  25.077500 -13.352500  -4.472380 -10.906900 -10.071200   4.942560 -11.777100   9.935840  36.257700  25.997900 -68.952700 -13.825800  -0.002693  -0.000599  -1.912880   0.004471   0.002295 -31.861900   6.172660  -9.810830 -26.502500   0.000000   0.000902 -18.551800   0.000000   0.000566 -28.457100   3.948290  -7.240060 -39.061500   0.006115   0.003256 -26.015000   0.001204   0.006056 -28.743400   0.563082  -1.025950 -40.248200   0.001219   0.000108 -26.805400   0.001956  -0.000711 -38.791600  -0.730291   0.908468 -58.196100   0.001724  -0.000413 -38.758600   0.002098   0.000259   6.994850  -0.849544   8.322010  57.104900  27.013400  15.392500  -8.223680 -11.656300 109.612000  58.526700 -24.671600  70.934300 -45.695700  28.298000  61.676700   1.618000   0.005553  -0.000066  -4.190990   0.011763   0.005660  21.089500   8.349810  20.628500  18.504200  -0.002393  -0.003118  12.953000  -0.006934  -0.002607  77.657800   0.108047   0.033162  77.658300   0.004847   0.003708  58.243700   0.004378   0.013297  76.310400  -4.787310  -1.171720  76.363100   0.004144   0.003012  57.272300   0.003678   0.005297  81.301800  -9.887410  -1.504730 110.006000  -0.001442   0.001689  80.140600   0.006782  -0.008268   2.241070  10.214300   1.670850   1.156880   0.479634  13.235400  -3.229650  -2.013250   2.022150  -0.000000   0.000000   0.000000   1.789520   6.141150   0.119241   1.735380   5.071570  -3.018250  -5.060730  -2.634280  -6.288250  -0.000000   0.000000   0.000000
 -1.400560  89.532800  -0.316311  -0.906948  -7.821550   4.133070   2.665200   6.260970  -1.376720   5.531470  12.448500  -3.074320   4.562080  -0.882809   0.065765   7.499570  -1.756560  13.524500  -6.534030   2.609780  -0.609795 -64.891700  25.040600 -13.285800  -4.459400 -10.879000 -10.046600   4.943240 -11.749600   9.920160  36.263600  25.985700 -68.930700 -13.821700  -0.002664  -0.000605  -1.910820   0.004479   0.002300 -31.840400   6.173840  -9.825050 -26.485800   0.000000   0.000910 -18.540100   0.000000   0.000572 -28.457900   3.947870  -7.238950 -39.043500   0.006039   0.003188 -26.003000   0.001197   0.006002 -28.743800   0.562519  -1.024860 -40.230800   0.001220   0.000224 -26.793700   0.001968  -0.000735 -38.781600  -0.727521   0.905348 -58.181100   0.001722  -0.000413 -38.748600   0.002097   0.000259   7.020890  -0.824380   8.336810  57.173700  26.900000  15.288400  -8.259760 -11.587600 109.517000  58.394700 -24.984600  70.834900 -45.781400  28.455900  61.855400   1.595700   0.005520  -0.000069  -4.202150   0.011831   0.005709  20.873400   8.357200  20.869900  18.340200  -0.002445  -0.003109  12.838200  -0.007132  -0.002533  77.134900   0.226174   0.068060  77.135600   0.004887   0.003543  57.851700   0.004283   0.013394  75.836900  -4.713770  -1.175310  75.886500   0.004197   0.002889  56.914800   0.003588   0.005374  80.886000  -9.876910  -1.575550 110.006000  -0.001386   0.001839  80.293500   0.006887  -0.008275   2.241290  10.208000   1.670800   1.150970   0.476393  13.237800  -3.228620  -2.033550   2.033830   0.000000   0.000000  -0.000000   1.785080   6.134260   0.129214   1.746710   5.059500  -3.042130  -5.053900  -2.650650  -6.253800  -0.000000   0.000000   0.000000
 -1.402400  89.532400  -0.281877  -0.908092  -7.784280   4.112580   2.644160   6.223630  -1.374690   5.487270  12.374600  -3.065780   4.544330  -0.876269   0.065489   7.470890  -1.743600  13.492700  -6.537660   2.621180  -0.595836 -64.973200  24.978700 -13.197700  -4.435020 -10.818700 -10.024600   4.955380 -11.747400   9.904420  36.252700  25.954000 -68.898800 -13.823100  -0.002629  -0.000580  -1.911530   0.004466   0.002298 -31.844700   6.188770  -9.849420 -26.491700   0.000038   0.000917 -18.544200   0.000000   0.000562 -28.458700   3.947060  -7.237580 -39.095600   0.005965   0.003123 -26.037700   0.001189   0.005948 -28.744100   0.561745  -1.023500 -40.279300   0.001220   0.000315 -26.825900   0.001968  -0.000734 -38.809800  -0.735352   0.914171 -58.223600   0.001720  -0.000414 -38.776900   0.002097   0.000258   7.042000  -0.794836   8.344630  57.255300  26.770500  15.175200  -8.302720 -11.506300 109.374000  58.262900 -25.328700  70.803500 -45.762400  28.531500  62.051900   1.649590   0.005481  -0.000079  -4.175210   0.011893   0.005768  20.640600   8.411330  21.221200  18.180000  -0.002483  -0.003114  12.726000  -0.007333  -0.002454  76.097400  -0.527743  -0.175080  76.097000  -0.004753  -0.002894  57.072800  -0.004109   0.013496  74.876500  -5.396960  -1.500960  74.943300  -0.003362  -0.002463  56.207400  -0.003035   0.005463  79.995400  -9.851910  -1.725200 110.006000  -0.001354   0.001990  79.905300   0.006989  -0.008270   2.236050  10.201200   1.674040   1.150830   0.468134  13.243800  -3.227130  -2.052200   2.044170   0.000000   0.000000   0.000000   1.779560   6.122030   0.135648   1.756720   5.053880  -3.062640  -5.051100  -2.667770  -6.216900   0.000000   0.000000  -0.000000
 -1.404590  89.532100  -0.246663  -0.908646  -7.747280   4.088980   2.620820   6.184030  -1.372670   5.438350  12.296200  -3.056890   4.521830  -0.862989   0.065204   7.433480  -1.717230  13.459100  -6.539180   2.634770  -0.578617 -65.061300  24.910800 -13.104500  -4.406110 -10.755600 -10.000700   4.973810 -11.747100   9.890640  36.244500  25.927300 -68.881400 -13.825400  -0.002593  -0.000556  -1.912700   0.004453   0.002294 -31.850100   6.202610  -9.866120 -26.497600   0.000094   0.000924 -18.548300   0.000000   0.000549 -28.460000   3.943870  -7.232920 -39.147700   0.005892   0.003057 -26.072400   0.001180   0.005894 -28.744600   0.558996  -1.018910 -40.327700   0.001220   0.000402 -26.858200   0.001968  -0.000733 -38.838000  -0.743184   0.922994 -58.266000   0.001718  -0.000415 -38.805100   0.002097   0.000257   7.064730  -0.753963   8.353470  57.345600  26.609000  15.046300  -8.343170 -11.401900 109.186000  58.097200 -25.752400  70.764100 -45.777800  28.664600  62.288300   1.760070   0.005438  -0.000098  -4.119970   0.011952   0.005832  20.402700   8.457740  21.578200  18.014400  -0.002517  -0.003119  12.610100  -0.007535  -0.002375  74.616400  -1.281630  -0.418308  74.621000  -0.018179  -0.009168  55.965800  -0.013708   0.013554  73.502400  -6.079710  -1.849650  73.597700  -0.014671  -0.009859  55.198300  -0.012583   0.005554  78.710500  -9.810830  -1.940680 110.006000  -0.001249   0.002141  78.880700   0.007090  -0.008261   2.227710  10.192100   1.677270   1.151840   0.462160  13.255900  -3.225480  -2.074410   2.055080  -0.000000   0.000000   0.000000   1.774350   6.108010   0.138466   1.762650   5.052220  -3.079730  -5.048310  -2.685550  -6.177440  -0.000000   0.000000   0.000000
